<svg viewBox="0 0 96 96" xmlns="http://www.w3.org/2000/svg" xmlns:xlink="http://www.w3.org/1999/xlink" id="Icons_SocialNetwork_M" overflow="hidden"><g id="Icons"><path d="M77 49C81.9777 49.0071 86.0188 44.9777 86.0259 39.9999 86.033 35.0222 82.0036 30.9812 77.0258 30.974 72.0481 30.9669 68.0071 34.9964 67.9999 39.9741 67.9986 40.8637 68.1291 41.7486 68.387 42.6L58.187 46.946C56.2346 43.0209 52.3695 40.4049 48 40.051L48 28.941C52.9398 28.3887 56.4966 23.9365 55.9443 18.9967 55.392 14.0569 50.9398 10.5002 46 11.0525 41.0602 11.6047 37.5034 16.0569 38.0557 20.9967 38.5229 25.1755 41.8213 28.4738 46 28.941L46 40.051C41.6323 40.4065 37.7695 43.0224 35.818 46.946L25.613 42.6C27.0716 37.8246 24.3829 32.7709 19.6075 31.3123 14.8321 29.8536 9.77837 32.5424 8.31973 37.3178 6.86109 42.0932 9.54987 47.1469 14.3253 48.6055 18.3684 49.8405 22.7275 48.1088 24.821 44.436L35.06 48.8C33.8277 52.7683 34.6526 57.0897 37.26 60.325L29.035 68.55C24.8819 65.7021 19.2065 66.7601 16.3586 70.9131 13.5106 75.0662 14.5686 80.7416 18.7217 83.5895 22.8748 86.4375 28.5502 85.3795 31.3981 81.2264 33.8118 77.7067 33.461 72.9836 30.554 69.859L38.64 61.773C43.3782 66.0799 50.6138 66.0799 55.352 61.773L63.438 69.859C60.0997 73.4668 60.3181 79.0977 63.9259 82.436 67.5336 85.7744 73.1646 85.556 76.5029 81.9482 79.8412 78.3404 79.6228 72.7095 76.015 69.3711 72.9707 66.5541 68.384 66.2135 64.957 68.55L56.732 60.325C59.3422 57.0911 60.1701 52.7696 58.94 48.8L69.179 44.439C70.7759 47.2554 73.7624 48.9971 77 49ZM13.025 45.755C13.1457 43.5597 15.0232 41.8778 17.2185 41.9985 19.2452 42.1099 20.8636 43.7283 20.975 45.755 18.585 47.415 15.415 47.415 13.025 45.755ZM15.5 38.5C15.5 37.6716 16.1716 37 17 37 17.8284 37 18.5 37.6716 18.5 38.5 18.5 39.3284 17.8284 40 17 40 16.1716 40 15.5 39.3284 15.5 38.5ZM22.678 44.078C22.1744 42.601 21.1177 41.3768 19.73 40.663 20.2249 40.0504 20.4964 39.2875 20.5 38.5 20.5 36.567 18.933 35 17 35 15.067 35 13.5 36.567 13.5 38.5 13.5036 39.2875 13.7751 40.0504 14.27 40.663 12.8823 41.3768 11.8256 42.601 11.322 44.078 9.06098 40.9421 9.77019 36.5671 12.9061 34.3061 16.0419 32.045 20.417 32.7543 22.678 35.8901 24.4407 38.3348 24.4407 41.6333 22.678 44.078ZM45.5 18.5C45.5 17.6716 46.1716 17 47 17 47.8284 17 48.5 17.6716 48.5 18.5 48.5 19.3284 47.8284 20 47 20 46.1716 20 45.5 19.3284 45.5 18.5ZM47 22C49.1086 22.0058 50.8493 23.6501 50.975 25.755 48.585 27.415 45.415 27.415 43.025 25.755 43.1507 23.6501 44.8914 22.0058 47 22ZM40 20C39.9912 16.134 43.1181 12.9929 46.9841 12.9841 50.8501 12.9753 53.9912 16.1022 54 19.9682 54.0033 21.4432 53.5406 22.8816 52.678 24.078 52.1744 22.601 51.1176 21.3768 49.73 20.663 50.2249 20.0504 50.4964 19.2875 50.5 18.5 50.5 16.567 48.933 15 47 15 45.067 15 43.5 16.567 43.5 18.5 43.5035 19.2875 43.7751 20.0504 44.27 20.663 42.8823 21.3768 41.8256 22.601 41.322 24.078 40.463 22.8917 40.0004 21.4646 40 20ZM20.025 81.755C20.1457 79.5597 22.0232 77.8778 24.2185 77.9985 26.2452 78.1099 27.8636 79.7283 27.975 81.755 25.585 83.415 22.415 83.415 20.025 81.755ZM22.5 74.5C22.5 73.6716 23.1716 73 24 73 24.8284 73 25.5 73.6716 25.5 74.5 25.5 75.3284 24.8284 76 24 76 23.1716 76 22.5 75.3284 22.5 74.5ZM29.678 80.078C29.1744 78.601 28.1177 77.3768 26.73 76.663 27.2249 76.0504 27.4964 75.2875 27.5 74.5 27.5 72.567 25.933 71 24 71 22.067 71 20.5 72.567 20.5 74.5 20.5036 75.2875 20.7751 76.0504 21.27 76.663 19.8823 77.3768 18.8256 78.601 18.322 80.078 16.061 76.9421 16.7702 72.5671 19.9061 70.3061 23.0419 68.0451 27.417 68.7543 29.678 71.8901 31.4407 74.3348 31.4407 77.6333 29.678 80.078ZM40.953 61.069C41.2689 57.7293 44.2324 55.2781 47.5721 55.5941 50.4745 55.8687 52.7724 58.1666 53.047 61.069 49.4267 63.6436 44.5733 63.6436 40.953 61.069ZM44.219 50.781C44.2196 49.2451 45.4651 48.0004 47.001 48.001 48.5369 48.0016 49.7816 49.2471 49.781 50.783 49.7804 52.3185 48.5355 53.563 47 53.563 45.4644 53.5613 44.2201 52.3166 44.219 50.781ZM66.025 81.755C66.1457 79.5597 68.0232 77.8778 70.2185 77.9985 72.2452 78.1099 73.8636 79.7283 73.975 81.755 71.585 83.415 68.415 83.415 66.025 81.755ZM68.5 74.5C68.5 73.6716 69.1716 73 70 73 70.8284 73 71.5 73.6716 71.5 74.5 71.5 75.3284 70.8284 76 70 76 69.1716 76 68.5 75.3284 68.5 74.5ZM77 76C76.9996 77.4646 76.537 78.8917 75.678 80.078 75.1744 78.601 74.1177 77.3768 72.73 76.663 73.2249 76.0504 73.4965 75.2875 73.5 74.5 73.5 72.567 71.933 71 70 71 68.067 71 66.5 72.567 66.5 74.5 66.5036 75.2875 66.7751 76.0504 67.27 76.663 65.8823 77.3768 64.8256 78.601 64.322 80.078 62.061 76.9421 62.7702 72.5671 65.9061 70.3061 69.042 68.0451 73.417 68.7543 75.678 71.8902 76.5407 73.0866 77.0033 74.525 77 76ZM54.785 59.521C54.1435 57.1766 52.4831 55.2442 50.262 54.257 52.1924 52.4554 52.2969 49.4301 50.4953 47.4997 48.6938 45.5693 45.6684 45.4648 43.738 47.2663 41.8076 49.0679 41.7031 52.0933 43.5047 54.0237 43.5797 54.1041 43.6576 54.1819 43.738 54.257 41.5169 55.2442 39.8565 57.1766 39.215 59.521 35.3237 55.2215 35.6546 48.5815 39.9542 44.6902 44.2537 40.7989 50.8937 41.1298 54.785 45.4293 58.405 49.4291 58.405 55.5212 54.785 59.521ZM73.025 45.755C73.1457 43.5597 75.0232 41.8778 77.2185 41.9985 79.2452 42.1099 80.8636 43.7283 80.975 45.755 78.585 47.415 75.415 47.415 73.025 45.755ZM75.5 38.5C75.5 37.6716 76.1716 37 77 37 77.8284 37 78.5 37.6716 78.5 38.5 78.5 39.3284 77.8284 40 77 40 76.1716 40 75.5 39.3284 75.5 38.5ZM77 33C80.8594 32.9934 83.9933 36.1167 84 39.976 84.0025 41.4485 83.5398 42.8841 82.678 44.078 82.1744 42.601 81.1177 41.3768 79.73 40.663 80.2249 40.0504 80.4965 39.2875 80.5 38.5 80.5 36.567 78.933 35 77 35 75.067 35 73.5 36.567 73.5 38.5 73.5036 39.2875 73.7751 40.0504 74.27 40.663 72.8823 41.3768 71.8256 42.601 71.322 44.078 69.0631 40.9487 69.7688 36.5808 72.898 34.322 74.0919 33.4601 75.5275 32.9975 77 33Z"/></g></svg>