<svg viewBox="0 0 96 96" xmlns="http://www.w3.org/2000/svg" xmlns:xlink="http://www.w3.org/1999/xlink" id="Icons_Dance_M" overflow="hidden"><g id="Icons"><path d="M46.345 42.166 41.687 44.5 37.637 37.809C37.1086 36.9508 36.2822 36.3177 35.316 36.031L21.529 32.09C20.1527 31.7869 18.7155 32.1824 17.688 33.147L13.011 37.826 9.776 33.626C8.47768 31.9448 6.08925 31.5767 4.345 32.789 2.77342 34.1506 2.49058 36.4821 3.691 38.18L9.566 46.015 9.657 46.115C10.3785 46.9659 11.409 47.4948 12.521 47.585 13.6387 47.621 14.7293 47.2371 15.578 46.509L18.609 43.478C18.623 43.464 18.63 43.468 18.625 43.488L16.075 53.126C15.818 53.8585 15.6691 54.6245 15.633 55.4 15.7056 56.7854 16.1654 58.1228 16.96 59.26L22.21 67.7 18.8 79.84C18.2625 81.8937 19.3795 84.0185 21.376 84.74 21.4539 84.7797 21.5406 84.799 21.628 84.796 21.681 84.808 21.742 84.831 21.804 84.851 22.0299 84.9389 22.2688 84.9893 22.511 85 24.3188 85.1099 25.9208 83.8442 26.232 82.06L30.141 68.375C30.3822 67.3059 30.1971 66.1848 29.625 65.25L28.55 63.542C28.538 63.524 28.544 63.518 28.563 63.529L32.282 65.761 32.282 79.161C32.3453 80.8258 33.3465 82.311 34.866 82.994 36.9256 83.7281 39.1903 82.6535 39.9244 80.5939 40.0725 80.1784 40.1501 79.7411 40.154 79.3L40.154 63.628C40.1015 62.2674 39.416 61.0095 38.301 60.228L30.547 55.538 33.385 46.275 36.73 51.8C37.4474 52.9849 38.7453 53.6938 40.13 53.657 40.764 53.6174 41.3829 53.4472 41.948 53.157L49.781 49.239C50.791 48.7498 51.5568 47.8685 51.9 46.8 52.1956 45.8425 52.0805 44.8053 51.582 43.936 50.5326 42.1097 48.2872 41.3508 46.345 42.166ZM49.98 46.22C49.8039 46.7648 49.4095 47.2121 48.891 47.455L41.059 51.372C40.7698 51.521 40.4567 51.6182 40.134 51.659 39.4502 51.694 38.8018 51.3531 38.443 50.77L33.954 43.352C33.8 43.1179 33.5679 42.946 33.299 42.867 32.7897 42.7545 32.2795 43.0523 32.127 43.551L28.406 55.7C28.2912 56.1375 28.4677 56.5995 28.845 56.849L37.184 61.886C37.75 62.2956 38.1053 62.935 38.154 63.632L38.154 79.006C38.1275 79.6431 37.8763 80.2503 37.445 80.72 36.6625 81.4192 35.4614 81.3517 34.7622 80.5692 34.4503 80.2201 34.2782 79.7682 34.279 79.3L34.279 65.2C34.2597 64.8544 34.0803 64.5375 33.794 64.343L25.961 59.643C25.4875 59.3588 24.8732 59.5123 24.589 59.9858 24.395 60.309 24.3992 60.7139 24.6 61.033L27.9 66.278C28.1932 66.7515 28.3001 67.3171 28.2 67.865L24.288 81.57C24.2762 81.6141 24.2668 81.6588 24.26 81.704 24.1133 82.5052 23.3839 83.0652 22.572 83 22.528 82.988 22.481 82.971 22.434 82.955 22.284 82.9005 22.1298 82.858 21.973 82.828 20.9963 82.4323 20.4642 81.374 20.729 80.354L24.254 67.819C24.3146 67.5475 24.2744 67.2631 24.141 67.019L18.657 58.2C18.0561 57.3832 17.7008 56.4118 17.633 55.4 17.6728 54.8195 17.7933 54.2473 17.991 53.7L21.517 40.38C21.6585 39.8461 21.3404 39.2987 20.8065 39.1572 20.8023 39.1561 20.7982 39.155 20.794 39.154 20.4411 39.0931 20.08 39.1999 19.817 39.443L14.164 45.1C13.6919 45.4533 13.1095 45.627 12.521 45.59 11.9728 45.4801 11.4787 45.1858 11.121 44.756L5.321 37.025C4.7419 36.2118 4.83357 35.0995 5.538 34.392 6.40942 33.8192 7.57618 34.0244 8.2 34.86L12.117 39.953C12.2928 40.1813 12.5584 40.3227 12.846 40.341 13.133 40.3604 13.4144 40.2542 13.617 40.05L19.1 34.561C19.6343 34.0901 20.3572 33.8946 21.056 34.032L34.8 37.958C35.2794 38.1193 35.6863 38.4448 35.949 38.877L40.449 46.321C40.7185 46.7654 41.2835 46.9293 41.749 46.698L47.179 43.98C48.1768 43.613 49.2943 44.012 49.834 44.928 50.0599 45.3197 50.1128 45.7877 49.98 46.22Z"/><path d="M31.229 33.257C34.4647 34.0092 37.6976 31.9959 38.4498 28.7602 38.6583 27.8631 38.6581 26.93 38.449 26.033 37.8355 23.8652 36.141 22.171 33.973 21.558 30.7371 20.8065 27.5047 22.8205 26.7532 26.0564 26.5451 26.9527 26.5454 27.8848 26.754 28.781 27.3669 30.9491 29.0611 32.6437 31.229 33.257ZM31.516 23.55C33.6524 22.956 35.8658 24.2064 36.4597 26.3428 36.656 27.0486 36.6554 27.7946 36.458 28.5 36.0231 29.8085 34.9965 30.8351 33.688 31.27 31.5515 31.8637 29.3383 30.6131 28.7446 28.4766 28.549 27.7727 28.5491 27.0288 28.745 26.325 29.179 25.0146 30.2062 23.9859 31.516 23.55Z"/><path d="M62.231 23.254C65.4667 24.0061 68.6995 21.9926 69.4516 18.7569 69.66 17.8602 69.6598 16.9276 69.451 16.031 68.8374 13.863 67.143 12.1686 64.975 11.555 61.7386 10.8035 58.5057 12.818 57.7543 16.0545 57.5461 16.9508 57.5464 17.8828 57.755 18.779 58.3685 20.9468 60.0631 22.641 62.231 23.254ZM62.517 13.547C64.6528 12.9531 66.8657 14.203 67.4596 16.3389 67.6555 17.0432 67.6553 17.7877 67.459 18.492 67.0241 19.8007 65.9975 20.8276 64.689 21.263 62.5524 21.8561 60.3395 20.6049 59.7463 18.4682 59.5511 17.7648 59.5513 17.0214 59.747 16.318 60.1819 15.0093 61.2085 13.9824 62.517 13.547Z"/><path d="M91.579 23.047C89.9874 21.6854 87.6175 21.7723 86.13 23.247L82.718 26.659 77.576 22.887C76.6065 22.1393 75.3248 21.932 74.169 22.336L60.486 26.242C59.8918 26.4476 59.3581 26.7978 58.933 27.261L54.161 32.034 48.092 32.034C46.4339 32.0967 44.9545 33.0936 44.274 34.607 43.5405 36.658 44.6085 38.9153 46.6595 39.6488 47.0744 39.7972 47.5113 39.875 47.952 39.879L55.743 39.879C56.7173 39.8361 57.6569 39.5051 58.443 38.928L58.591 38.807 62.713 34.684 66.04 44.509 57.566 50.1C56.3187 50.9434 55.6147 52.3869 55.718 53.889L55.728 54.021 57.675 67.66C57.9621 69.6016 59.6243 71.0425 61.587 71.051L61.977 71.051 62.088 71.045C63.1293 70.9056 64.0706 70.3531 64.7 69.512 65.3363 68.6805 65.6233 67.6337 65.5 66.594L63.84 55.339 68.355 52.366C68.37 52.355 68.377 52.361 68.369 52.378L67.692 53.854 67.656 53.947C67.4063 54.5906 67.3237 55.2869 67.416 55.971L69.364 69.608C69.6493 71.5499 71.3112 72.9917 73.274 73L73.664 73 73.777 72.994C75.9325 72.6891 77.4484 70.7163 77.188 68.555L75.472 55.781 79.838 45.907C80.1503 45.1572 80.3117 44.3532 80.313 43.541 80.2629 42.7956 80.1205 42.0593 79.889 41.349L77.524 32.476C77.524 32.461 77.524 32.456 77.54 32.466L80.706 34.84C82.3001 35.9098 84.4134 35.7786 85.863 34.52L91.707 28.675C93.2288 27.2186 93.2818 24.8043 91.8255 23.2825 91.7469 23.2004 91.6646 23.1218 91.579 23.047ZM90.293 27.261 84.516 33.045C83.7669 33.6876 82.682 33.7542 81.86 33.208L76.406 29.117C75.9634 28.7866 75.3368 28.8775 75.0064 29.3201 74.8239 29.5646 74.763 29.879 74.841 30.174L77.972 41.914C78.1493 42.4506 78.2638 43.006 78.313 43.569 78.3064 44.0934 78.203 44.6121 78.008 45.099L73.528 55.23C73.4616 55.4004 73.4356 55.5839 73.452 55.766L75.2 68.812C75.3021 69.8425 74.6129 70.7849 73.6 71L73.279 71C72.3102 70.9956 71.4898 70.2844 71.348 69.326L69.4 55.7C69.351 55.3403 69.3976 54.974 69.535 54.638L71.635 50.057C71.792 49.683 71.7383 49.2538 71.494 48.93 71.1634 48.5575 70.6092 48.4851 70.194 48.76L62.206 54.02C61.8974 54.2471 61.7307 54.6196 61.767 55.001L63.517 66.864C63.5689 67.3786 63.4194 67.8933 63.1 68.3 62.8106 68.6943 62.3812 68.9627 61.9 69.05L61.581 69.05C60.6123 69.0448 59.792 68.3341 59.649 67.376L57.719 53.814C57.6729 53.0313 58.0142 52.2758 58.632 51.793L67.787 45.754C68.1522 45.4926 68.3125 45.0292 68.187 44.598L64.096 32.518C63.919 31.9948 63.3514 31.7142 62.8283 31.8912 62.6824 31.9406 62.5498 32.023 62.441 32.132L57.251 37.32C56.8083 37.6395 56.287 37.8327 55.743 37.879L48.243 37.879C47.6115 37.8537 47.0093 37.6057 46.543 37.179 45.8504 36.4002 45.9203 35.2075 46.6991 34.5149 47.0442 34.208 47.4901 34.0383 47.952 34.038L54.575 34.038C54.8372 34.0238 55.0866 33.9204 55.282 33.745L60.353 28.673C60.5484 28.4414 60.7992 28.2629 61.082 28.154L74.751 24.248C75.2995 24.0292 75.9234 24.1224 76.384 24.492L82.227 28.778C82.6294 29.0565 83.1719 29.0148 83.527 28.678L87.6 24.6C88.3502 23.8498 89.5665 23.8498 90.3167 24.5999 90.6676 24.9508 90.8691 25.4239 90.879 25.92 90.8706 26.4273 90.6595 26.9102 90.293 27.261Z"/></g></svg>