<svg viewBox="0 0 96 96" xmlns="http://www.w3.org/2000/svg" xmlns:xlink="http://www.w3.org/1999/xlink" id="Icons_Hurdle_M" overflow="hidden"><g id="Icons"><path d="M39.448 61.1C38.9324 61.298 38.6751 61.8765 38.8731 62.3921 39.0711 62.9076 39.6496 63.165 40.1652 62.967 40.1776 62.9622 40.1898 62.9572 40.202 62.952L43 61.814 43 88 34 88 34 90 45 90 45 61 69.986 50.834 70 50.843 70 77 61 77 61 79 72 79 72 51.121 67.339 49.752Z"/><path d="M59.927 18.284C63.3512 18.284 66.127 15.5082 66.127 12.084 66.127 8.65983 63.3512 5.884 59.927 5.884 56.5028 5.884 53.727 8.65983 53.727 12.084 53.727 15.5082 56.5028 18.284 59.927 18.284ZM59.927 7.884C62.2466 7.884 64.127 9.7644 64.127 12.084 64.127 14.4036 62.2466 16.284 59.927 16.284 57.6074 16.284 55.727 14.4036 55.727 12.084 55.7281 9.76438 57.6074 7.88376 59.927 7.881Z"/><path d="M83.49 43.78C82.8769 42.648 81.8361 41.8086 80.6 41.449L61.8 35.927C61.0687 35.715 60.298 35.6759 59.549 35.813L54.125 36.819 58.735 31.131 59.295 31.308 73.81 36.151C76.3545 36.9879 79.0956 35.6037 79.9326 33.0593 79.9327 33.0588 79.9329 33.0584 79.933 33.058 80.7561 30.5273 79.3939 27.8047 76.875 26.946L53.787 19.246C53.787 19.246 53.277 19.093 52.997 19.046 52.7452 19.0152 52.4917 18.9998 52.238 19L36.958 19C35.5858 19.0005 34.2779 19.5818 33.358 20.6L25.6 29.191C23.7623 31.1398 23.8524 34.2093 25.8012 36.047 26.6439 36.8416 27.7431 37.3084 28.9 37.363 30.3538 37.435 31.763 36.8498 32.738 35.769L39.113 28.7 40.172 28.7 41.74 26.7 38.225 26.7 31.252 34.426C30.1947 35.5957 28.3893 35.6869 27.2196 34.6295 27.0703 34.4946 26.9357 34.3442 26.818 34.181 26.0324 33.053 26.1446 31.5288 27.087 30.528L34.843 21.937C35.3842 21.3403 36.1524 20.9999 36.958 21L52.245 21C52.427 21 52.601 21.007 52.699 21.015 52.839 21.042 53.177 21.147 53.177 21.147L76.236 28.847C77.7277 29.3511 78.5282 30.9691 78.0241 32.4607 77.7845 33.1696 77.2759 33.7558 76.608 34.093 75.9352 34.4353 75.1535 34.4944 74.437 34.257L58.058 28.787 56.981 28.487C56.4592 28.3061 55.8895 28.5824 55.7086 29.1042 55.5276 29.626 55.804 30.1957 56.3258 30.3766 56.344 30.3829 56.3624 30.3887 56.381 30.394L56.681 30.494 51.754 36.573 49.144 39.588C48.7866 40.009 48.8381 40.6401 49.2592 40.9975 49.6744 41.3501 50.2955 41.3054 50.656 40.897L52.091 39.24 59.91 37.788C60.351 37.7083 60.8045 37.7316 61.235 37.856L80.035 43.377C81.5458 43.821 82.4105 45.4057 81.9665 46.9165 81.5225 48.4273 79.9378 49.292 78.427 48.848L60.286 43.511 40.147 47.248C40.112 47.255 40.086 47.276 40.052 47.286 39.5982 47.2543 39.1815 47.5367 39.043 47.97L36.374 56.55C36.0509 57.6245 35.1283 58.4102 34.016 58.558L15.616 60.975C15.4924 60.9919 15.3678 61.0002 15.243 61L15.243 61C13.6684 61.0005 12.3916 59.7244 12.3911 58.1498 12.3907 56.7177 13.4529 55.5074 14.873 55.322L31.417 53.147 34.832 42.935C36.307 40.753 42.313 32.646 44.626 29.535L47.186 26.27C47.5268 25.8354 47.4506 25.2068 47.016 24.866 46.5814 24.5252 45.9528 24.6014 45.612 25.036L44.3 26.7 44.28 26.7 42.712 28.7 42.748 28.7C40.214 32.114 34.436 39.92 33.095 41.928L32.978 42.167 29.916 51.324 14.616 53.335C11.9578 53.674 10.0778 56.1036 10.4168 58.7618 10.7264 61.1899 12.7962 63.0072 15.244 63L15.244 63C15.4567 63.0001 15.6692 62.9861 15.88 62.958L34.28 60.542C36.1701 60.2919 37.739 58.9589 38.291 57.134L40.77 49.168 60.185 45.568 71.876 49 71.876 49 72 49.036 72 49.036 77.863 50.758C80.4341 51.513 83.1305 50.0407 83.8854 47.4695 84.2477 46.2359 84.1055 44.9089 83.49 43.78Z"/></g></svg>