<svg viewBox="0 0 96 96" xmlns="http://www.w3.org/2000/svg" xmlns:xlink="http://www.w3.org/1999/xlink" id="Icons_Hammer1" overflow="hidden"><path d="M74.33 77.324 70.663 76.054 69.447 75.554C71.216 73.949 73.009 72.244 74.805 70.449 78.9507 66.3332 82.8302 61.9577 86.42 57.349 87.2772 56.2279 87.1707 54.6451 86.171 53.649L74.345 41.818C73.3489 40.8183 71.7661 40.7118 70.645 41.569 67.51 43.983 64.156 46.852 60.745 50.069L18.17 5.405C17.3816 4.65376 16.1424 4.65376 15.354 5.405L9.722 11.037C8.97076 11.8254 8.97076 13.0646 9.722 13.853L54.307 56.514C51.2236 59.7682 48.311 63.1801 45.581 66.736 44.7299 67.8554 44.8385 69.4318 45.835 70.424 47.706 72.294 50.797 75.386 53.545 78.134L40.478 74.978 34.169 78.437 23.469 81.362 34.581 81.762 41.881 78.138 56.232 80.822 57.214 81.803 58.245 83.616 50.225 83.677 43.85 91.163 50.573 87.045 57.573 86.982 58.97 91.7 60.008 86.723 63.13 80.943C64.0827 80.1843 65.0493 79.3883 66.03 78.555L70.416 78.555 71.653 81.41 69.718 84.205 71.254 87.105 73.454 83.438 74.876 79.838 81.362 78.3 86.741 81.442 82.822 76.342Z"/></svg>