<svg viewBox="0 0 96 96" xmlns="http://www.w3.org/2000/svg" xmlns:xlink="http://www.w3.org/1999/xlink" id="Icons_ClappingHands_M" overflow="hidden"><g id="Icons"><rect x="59.985" y="15.373" width="10" height="2" transform="matrix(0.707107 -0.707107 0.707107 0.707107 7.456 50.747)"/><rect x="44.185" y="11.374" width="2" height="9.999" transform="matrix(0.707144 -0.70707 0.70707 0.707144 1.656 36.744)"/><rect x="54.085" y="7.788" width="2" height="10"/><path d="M48.385 33.439 54.431 27.393C55.5884 26.2379 57.4626 26.2379 58.62 27.393 58.639 27.412 58.652 27.435 58.67 27.455 59.1933 27.0295 59.7761 26.6832 60.4 26.427 60.287 26.2705 60.1648 26.1209 60.034 25.979 58.0949 24.0447 54.9561 24.0447 53.017 25.979L47.083 31.914C47.5919 32.3533 48.031 32.8675 48.385 33.439Z"/><path d="M22.893 64.02 21.393 52.535C21.3127 51.9067 21.4542 51.2701 21.793 50.735L33.471 32.29C33.8827 31.6168 34.5376 31.1277 35.3 30.924 36.1888 30.6962 37.133 30.8963 37.853 31.465 37.9669 31.5559 38.0729 31.6563 38.17 31.765 38.6943 31.3419 39.277 30.9966 39.9 30.74 39.6632 30.4208 39.3863 30.1334 39.076 29.885 36.9163 28.1981 33.798 28.5815 32.1111 30.7413 32.0117 30.8686 31.9185 31.0006 31.832 31.137L20.1 49.665C19.5118 50.5958 19.2677 51.7031 19.41 52.795L20.85 63.795 16.3 68.337C15.9098 68.7076 15.8664 69.3146 16.2 69.737 16.5584 70.1572 17.1896 70.2072 17.6098 69.8488 17.6299 69.8316 17.6493 69.8137 17.668 69.795L22.605 64.858C22.8263 64.6388 22.9328 64.3289 22.893 64.02Z"/><path d="M74.883 50.526 77.667 47.742C79.5773 45.88 79.7227 42.8578 78 40.821 77.2207 39.9448 76.1531 39.3771 74.991 39.221L75.575 38.636C77.5127 36.698 77.5125 33.5562 75.5745 31.6185 73.6365 29.6808 70.4947 29.681 68.557 31.619L67.943 32.232C67.5963 29.5236 65.1196 27.6091 62.4112 27.9559 61.3256 28.0949 60.3169 28.5901 59.543 29.364L43.3 45.6C43.27 45.631 43.263 45.625 43.285 45.589L46.641 39.981C48.0545 37.8048 47.6062 34.9139 45.6 33.268 43.4404 31.581 40.322 31.9642 38.6351 34.1238 38.5353 34.2516 38.4418 34.3841 38.355 34.521L26.613 53.048C26.0245 53.9787 25.7804 55.0861 25.923 56.178L27.362 67.178 21.402 73.138C21.0127 73.5091 20.9694 74.1153 21.302 74.538 21.6604 74.9582 22.2916 75.0082 22.7118 74.6498 22.7319 74.6326 22.7513 74.6147 22.77 74.596L29.122 68.245C29.3415 68.0253 29.4465 67.716 29.406 67.408L27.906 55.923C27.8257 55.2947 27.9672 54.6581 28.306 54.123L39.988 35.683C40.3983 35.0102 41.0506 34.52 41.811 34.313 42.7018 34.0836 43.6487 34.2833 44.371 34.853 45.5747 35.8698 45.8187 37.6302 44.937 38.936L37.377 51.569C37.0931 52.0427 37.2471 52.6569 37.7208 52.9408 38.1143 53.1766 38.6177 53.1144 38.942 52.79L60.948 30.776C62.1315 29.6212 64.027 29.6444 65.1818 30.8278 65.8896 31.5531 66.1824 32.5873 65.96 33.576 65.8712 34.1192 65.5832 34.6098 65.152 34.952 65.0891 35.0177 65.0372 35.093 64.998 35.175L48.798 51.375C48.4073 51.7653 48.4069 52.3985 48.7972 52.7892 48.837 52.829 48.8801 52.8654 48.926 52.898 49.3447 53.176 49.9025 53.1141 50.25 52.751L69.967 33.031C71.1238 31.874 72.9995 31.8737 74.1565 33.0305 75.3135 34.1873 75.3138 36.063 74.157 37.22L70.778 40.6 70.778 40.6 70.778 40.6 54.4 56.973C54.0028 57.3567 53.9917 57.9897 54.3754 58.387 54.7591 58.7843 55.3922 58.7953 55.7894 58.4116 55.7978 58.4035 55.806 58.3953 55.814 58.387L72.192 42.014C73.349 40.8583 75.2238 40.8595 76.3795 42.0165 77.5352 43.1735 77.534 45.0483 76.377 46.204L60.007 62.574C59.6097 62.9577 59.5987 63.5907 59.9824 63.988 60.3661 64.3853 60.9992 64.3963 61.3964 64.0126 61.4048 64.0045 61.413 63.9963 61.421 63.988L71.845 53.565C71.9855 53.5176 72.1137 53.4394 72.22 53.336 73.3774 52.18 75.2529 52.1811 76.4089 53.3385 76.4774 53.4071 76.5425 53.479 76.604 53.554 77.5551 54.7992 77.4186 56.5602 76.287 57.644L56.845 77.086C54.6927 79.2384 51.9343 80.6822 48.939 81.224L46.745 81.624C44.9515 81.9458 43.2993 82.8084 42.01 84.096L37.138 88.957C36.747 89.3472 36.7463 89.9805 37.1365 90.3715 37.5267 90.7625 38.16 90.7632 38.551 90.373L43.421 85.513C44.4224 84.5115 45.7062 83.8401 47.1 83.589L49.3 83.189C52.6961 82.5787 55.8235 80.9422 58.261 78.5L77.7 59.058C79.5539 57.2427 79.746 54.3236 78.146 52.281 77.3251 51.2974 76.1562 50.6687 74.883 50.526Z"/></g></svg>